<?xml version="1.0" encoding="UTF-8" standalone="no"?>
<svg
   xmlns:dc="http://purl.org/dc/elements/1.1/"
   xmlns:cc="http://creativecommons.org/ns#"
   xmlns:rdf="http://www.w3.org/1999/02/22-rdf-syntax-ns#"
   xmlns:svg="http://www.w3.org/2000/svg"
   xmlns="http://www.w3.org/2000/svg"
   xmlns:sodipodi="http://sodipodi.sourceforge.net/DTD/sodipodi-0.dtd"
   xmlns:inkscape="http://www.inkscape.org/namespaces/inkscape"
   version="1.1"
   id="svg2"
   xml:space="preserve"
   width="1200"
   height="400"
   viewBox="0 0 1200 400"
   sodipodi:docname="Diagho_logo.svg"
   inkscape:version="1.0.2 (e86c870879, 2021-01-15)"><metadata
     id="metadata8"><rdf:RDF><cc:Work
         rdf:about=""><dc:format>image/svg+xml</dc:format><dc:type
           rdf:resource="http://purl.org/dc/dcmitype/StillImage" /><dc:title></dc:title></cc:Work></rdf:RDF></metadata><defs
     id="defs6"><linearGradient
       x1="0"
       y1="0"
       x2="1"
       y2="0"
       gradientUnits="userSpaceOnUse"
       gradientTransform="matrix(568.6791,-4.4777883,-4.4777883,-568.6791,525.99768,574.59676)"
       spreadMethod="pad"
       id="linearGradient32"><stop
         style="stop-opacity:1;stop-color:#462764"
         offset="0"
         id="stop26" /><stop
         style="stop-opacity:1;stop-color:#b6337a"
         offset="0.56919"
         id="stop28" /><stop
         style="stop-opacity:1;stop-color:#f2910a"
         offset="1"
         id="stop30" /></linearGradient><linearGradient
       x1="0"
       y1="0"
       x2="1"
       y2="0"
       gradientUnits="userSpaceOnUse"
       gradientTransform="matrix(568.6791,-4.4777883,-4.4777883,-568.6791,526.14871,593.78134)"
       spreadMethod="pad"
       id="linearGradient54"><stop
         style="stop-opacity:1;stop-color:#462764"
         offset="0"
         id="stop48" /><stop
         style="stop-opacity:1;stop-color:#b6337a"
         offset="0.56919"
         id="stop50" /><stop
         style="stop-opacity:1;stop-color:#f2910a"
         offset="1"
         id="stop52" /></linearGradient><linearGradient
       x1="0"
       y1="0"
       x2="1"
       y2="0"
       gradientUnits="userSpaceOnUse"
       gradientTransform="matrix(583.28906,-4.5928269,-4.5928269,-583.28906,513.78663,538.53532)"
       spreadMethod="pad"
       id="linearGradient76"><stop
         style="stop-opacity:1;stop-color:#462764"
         offset="0"
         id="stop70" /><stop
         style="stop-opacity:1;stop-color:#b6337a"
         offset="0.56919"
         id="stop72" /><stop
         style="stop-opacity:1;stop-color:#f2910a"
         offset="1"
         id="stop74" /></linearGradient><linearGradient
       x1="0"
       y1="0"
       x2="1"
       y2="0"
       gradientUnits="userSpaceOnUse"
       gradientTransform="matrix(568.6791,-4.4777883,-4.4777883,-568.6791,525.32999,489.80423)"
       spreadMethod="pad"
       id="linearGradient98"><stop
         style="stop-opacity:1;stop-color:#462764"
         offset="0"
         id="stop92" /><stop
         style="stop-opacity:1;stop-color:#b6337a"
         offset="0.56919"
         id="stop94" /><stop
         style="stop-opacity:1;stop-color:#f2910a"
         offset="1"
         id="stop96" /></linearGradient><linearGradient
       x1="0"
       y1="0"
       x2="1"
       y2="0"
       gradientUnits="userSpaceOnUse"
       gradientTransform="matrix(568.6791,-4.4777883,-4.4777883,-568.6791,525.48321,509.26299)"
       spreadMethod="pad"
       id="linearGradient120"><stop
         style="stop-opacity:1;stop-color:#462764"
         offset="0"
         id="stop114" /><stop
         style="stop-opacity:1;stop-color:#b6337a"
         offset="0.56919"
         id="stop116" /><stop
         style="stop-opacity:1;stop-color:#f2910a"
         offset="1"
         id="stop118" /></linearGradient><linearGradient
       x1="0"
       y1="0"
       x2="1"
       y2="0"
       gradientUnits="userSpaceOnUse"
       gradientTransform="matrix(568.6791,-4.4777883,-4.4777883,-568.6791,513.07836,537.06436)"
       spreadMethod="pad"
       id="linearGradient142"><stop
         style="stop-opacity:1;stop-color:#462764"
         offset="0"
         id="stop136" /><stop
         style="stop-opacity:1;stop-color:#b6337a"
         offset="0.56919"
         id="stop138" /><stop
         style="stop-opacity:1;stop-color:#f2910a"
         offset="1"
         id="stop140" /></linearGradient><linearGradient
       x1="0"
       y1="0"
       x2="1"
       y2="0"
       gradientUnits="userSpaceOnUse"
       gradientTransform="matrix(568.6791,-4.4777883,-4.4777883,-568.6791,520.68491,541.16872)"
       spreadMethod="pad"
       id="linearGradient164"><stop
         style="stop-opacity:1;stop-color:#462764"
         offset="0"
         id="stop158" /><stop
         style="stop-opacity:1;stop-color:#b6337a"
         offset="0.56919"
         id="stop160" /><stop
         style="stop-opacity:1;stop-color:#f2910a"
         offset="1"
         id="stop162" /></linearGradient><linearGradient
       x1="0"
       y1="0"
       x2="1"
       y2="0"
       gradientUnits="userSpaceOnUse"
       gradientTransform="matrix(568.6791,-4.4777883,-4.4777883,-568.6791,528.62756,587.94857)"
       spreadMethod="pad"
       id="linearGradient186"><stop
         style="stop-opacity:1;stop-color:#462764"
         offset="0"
         id="stop180" /><stop
         style="stop-opacity:1;stop-color:#b6337a"
         offset="0.56919"
         id="stop182" /><stop
         style="stop-opacity:1;stop-color:#f2910a"
         offset="1"
         id="stop184" /></linearGradient><linearGradient
       x1="0"
       y1="0"
       x2="1"
       y2="0"
       gradientUnits="userSpaceOnUse"
       gradientTransform="matrix(568.6791,-4.4777883,-4.4777883,-568.6791,527.92249,498.4101)"
       spreadMethod="pad"
       id="linearGradient208"><stop
         style="stop-opacity:1;stop-color:#462764"
         offset="0"
         id="stop202" /><stop
         style="stop-opacity:1;stop-color:#b6337a"
         offset="0.56919"
         id="stop204" /><stop
         style="stop-opacity:1;stop-color:#f2910a"
         offset="1"
         id="stop206" /></linearGradient><linearGradient
       x1="0"
       y1="0"
       x2="1"
       y2="0"
       gradientUnits="userSpaceOnUse"
       gradientTransform="matrix(568.6791,-4.4777883,-4.4777883,-568.6791,518.14508,539.24992)"
       spreadMethod="pad"
       id="linearGradient230"><stop
         style="stop-opacity:1;stop-color:#462764"
         offset="0"
         id="stop224" /><stop
         style="stop-opacity:1;stop-color:#b6337a"
         offset="0.56919"
         id="stop226" /><stop
         style="stop-opacity:1;stop-color:#f2910a"
         offset="1"
         id="stop228" /></linearGradient><clipPath
       clipPathUnits="userSpaceOnUse"
       id="clipPath246"><path
         d="m 1689.841,70.287 h 178.781 v 97.061 h -178.781 z"
         id="path244" /></clipPath></defs><sodipodi:namedview
     pagecolor="#ffffff"
     bordercolor="#666666"
     borderopacity="1"
     objecttolerance="10"
     gridtolerance="10"
     guidetolerance="10"
     inkscape:pageopacity="0"
     inkscape:pageshadow="2"
     inkscape:window-width="1848"
     inkscape:window-height="1016"
     id="namedview4"
     showgrid="false"
     inkscape:zoom="0.59861111"
     inkscape:cx="548.93028"
     inkscape:cy="439.4171"
     inkscape:window-x="72"
     inkscape:window-y="27"
     inkscape:window-maximized="1"
     inkscape:current-layer="g10" /><g
     id="g10"
     inkscape:groupmode="layer"
     inkscape:label="LOGOS DIAGHO -020621"
     transform="matrix(1.3333333,0,0,-1.3333333,0,1440)"><g
       id="g314"
       transform="translate(-364.96901,427.49813)"><g
         id="g14"><g
           id="g16"><g
             id="g22"><g
               id="g24"><path
                 d="M 922.842,604.65 V 568.2 c 0,-22.136 18.008,-40.146 40.145,-40.146 v 0 h 28.857 c 5.438,0 9.846,4.41 9.846,9.848 v 0 c 0,5.44 -4.408,9.848 -9.846,9.848 v 0 h -28.857 c -11.277,0 -20.451,9.171 -20.451,20.45 v 0 36.45 c 0,5.437 -4.408,9.846 -9.846,9.846 v 0 c -5.44,0 -9.848,-4.409 -9.848,-9.846"
                 style="fill:url(#linearGradient32);stroke:none"
                 id="path34" /></g></g></g></g><g
         id="g36"><g
           id="g38"><g
             id="g44"><g
               id="g46"><path
                 d="m 1034.508,604.229 v -29.058 c 0,-5.438 4.41,-9.848 9.846,-9.848 v 0 c 5.438,0 9.847,4.41 9.847,9.848 v 0 29.058 c 0,5.44 -4.409,9.846 -9.847,9.846 v 0 c -5.436,0 -9.846,-4.406 -9.846,-9.846"
                 style="fill:url(#linearGradient54);stroke:none"
                 id="path56" /></g></g></g></g><g
         id="g58"><g
           id="g60"><g
             id="g66"><g
               id="g68"><path
                 d="M 566.557,603.67 V 472.413 c 0,-5.438 4.408,-9.846 9.846,-9.846 v 0 c 5.438,0 9.846,4.408 9.846,9.846 v 0 131.257 c 0,5.438 -4.408,9.846 -9.846,9.846 v 0 c -5.438,0 -9.846,-4.408 -9.846,-9.846"
                 style="fill:url(#linearGradient76);stroke:none"
                 id="path78" /></g></g></g></g><g
         id="g80"><g
           id="g82"><g
             id="g88"><g
               id="g90"><path
                 d="m 922.558,500.365 v -27.533 c 0,-5.437 4.408,-9.847 9.846,-9.847 v 0 c 5.437,0 9.846,4.41 9.846,9.847 v 0 27.533 c 0,5.438 -4.409,9.846 -9.846,9.846 v 0 c -5.438,0 -9.846,-4.408 -9.846,-9.846"
                 style="fill:url(#linearGradient98);stroke:none"
                 id="path100" /></g></g></g></g><g
         id="g102"><g
           id="g104"><g
             id="g110"><g
               id="g112"><path
                 d="m 990.656,547.75 c -5.436,0 -9.844,-4.408 -9.844,-9.848 v 0 c 0,-5.438 4.408,-9.848 9.844,-9.848 v 0 h 23.809 c 11.278,0 20.451,-9.172 20.451,-20.449 v 0 -34.921 c 0,-5.44 4.41,-9.848 9.848,-9.848 v 0 c 5.438,0 9.846,4.408 9.846,9.848 v 0 34.921 c 0,22.137 -18.01,40.145 -40.145,40.145 v 0 z"
                 style="fill:url(#linearGradient120);stroke:none"
                 id="path122" /></g></g></g></g><g
         id="g124"><g
           id="g126"><g
             id="g132"><g
               id="g134"><path
                 d="m 402,613.016 v -93.865 c 0,-5.108 4.139,-9.248 9.248,-9.248 v 0 c 5.107,0 9.248,4.14 9.248,9.248 v 0 75.37 h 51.406 c 31.374,0 56.899,-25.524 56.899,-56.9 v 0 c 0,-31.372 -25.525,-56.896 -56.899,-56.896 v 0 h -59.791 c -5.108,0 -9.248,-4.14 -9.248,-9.246 v 0 c 0,-5.11 4.14,-9.251 9.248,-9.251 v 0 h 59.791 c 41.573,0 75.395,33.82 75.395,75.393 v 0 c 0,41.573 -33.822,75.395 -75.395,75.395 v 0 z"
                 style="fill:url(#linearGradient142);stroke:none"
                 id="path144" /></g></g></g></g><g
         id="g146"><g
           id="g148"><g
             id="g154"><g
               id="g156"><path
                 d="m 748.57,538.742 c 0,-44.264 36.011,-80.273 80.272,-80.273 v 0 c 43.765,0 79.434,35.204 80.234,78.775 v 0 c 0.008,0.13 0.041,0.249 0.041,0.377 v 0 c 0,0.077 -0.023,0.149 -0.024,0.225 v 0 c -0.123,5.332 -4.462,9.623 -9.822,9.623 v 0 h -9.298 -56.371 c -5.44,0 -9.848,-4.408 -9.848,-9.848 v 0 c 0,-5.438 4.408,-9.848 9.848,-9.848 v 0 h 54.809 c -5.178,-28.181 -29.908,-49.61 -59.569,-49.61 v 0 c -33.401,0 -60.579,27.175 -60.579,60.579 v 0 c 0,33.403 27.178,60.578 60.579,60.578 v 0 c 14.789,0 29.031,-5.385 40.096,-15.165 v 0 c 4.074,-3.597 10.299,-3.218 13.899,0.86 v 0 c 3.602,4.072 3.216,10.297 -0.857,13.899 v 0 c -14.672,12.961 -33.543,20.102 -53.138,20.102 v 0 c -44.261,0 -80.272,-36.013 -80.272,-80.274"
                 style="fill:url(#linearGradient164);stroke:none"
                 id="path166" /></g></g></g></g><g
         id="g168"><g
           id="g170"><g
             id="g176"><g
               id="g178"><path
                 d="m 1068.431,547.75 h 0.01 19.835 c 4.365,29.147 29.565,51.57 59.908,51.57 v 0 c 30.342,0 55.54,-22.423 59.908,-51.57 v 0 h 19.846 v 0 c -4.494,40.035 -38.538,71.266 -79.754,71.266 v 0 c -41.217,0 -75.261,-31.231 -79.753,-71.266"
                 style="fill:url(#linearGradient186);stroke:none"
                 id="path188" /></g></g></g></g><g
         id="g190"><g
           id="g192"><g
             id="g198"><g
               id="g200"><path
                 d="m 1206.141,521.15 c -7.552,-24.848 -30.671,-42.987 -57.957,-42.987 v 0 c -27.287,0 -50.402,18.139 -57.956,42.987 v 0 c -1.253,4.118 -5.076,6.904 -9.377,6.904 v 0 c -6.605,0 -11.367,-6.385 -9.441,-12.701 v 0 c 10.033,-32.888 40.644,-56.884 76.774,-56.884 v 0 c 36.127,0 66.739,23.996 76.774,56.884 v 0 c 1.926,6.316 -2.839,12.701 -9.441,12.701 v 0 c -4.302,0 -8.126,-2.786 -9.376,-6.904"
                 style="fill:url(#linearGradient208);stroke:none"
                 id="path210" /></g></g></g></g><g
         id="g212"><g
           id="g214"><g
             id="g220"><g
               id="g222"><path
                 d="M 667.406,608.77 604.027,475.704 c -2.194,-4.611 -0.24,-10.13 4.373,-12.327 v 0 c 1.286,-0.611 2.637,-0.901 3.972,-0.901 v 0 c 3.453,0 6.77,1.947 8.355,5.274 v 0 l 19.942,41.872 h 70.328 l 21.909,-42.162 c 1.649,-3.167 4.874,-4.984 8.212,-4.984 v 0 c 1.439,0 2.898,0.337 4.258,1.046 v 0 c 4.533,2.354 6.297,7.937 3.944,12.47 v 0 l -27.091,52.127 h -72.75 l 26.55,55.742 15.83,-31.123 c 2.315,-4.55 7.886,-6.363 12.435,-4.048 v 0 c 4.551,2.314 6.367,7.882 4.049,12.437 v 0 l -24.346,47.862 c -1.599,3.137 -4.898,5.004 -8.364,5.055 v 0 c -3.522,-0.047 -6.714,-2.093 -8.227,-5.274"
                 style="fill:url(#linearGradient230);stroke:none"
                 id="path232" /></g></g></g></g><text
         transform="matrix(1,0,0,-1,472.2276,389.8932)"
         style="font-variant:normal;font-weight:500;font-stretch:normal;font-size:30.2972px;font-family:Montserrat;-inkscape-font-specification:Montserrat-Medium;writing-mode:lr-tb;fill:#462764;fill-opacity:1;fill-rule:nonzero;stroke:none"
         id="text236"><tspan
           x="0 22.480522 48.536114 70.862122 88.192116 110.97562 120.97369 139.57617 148.33206 173.50903 180.99245 190.99052 216.19778 234.5882 255.49326 278.12527 300.30283 322.93481 343.8399 361.16989 382.89297 401.28339 411.28146 437.33707 462.54431 471.3002 495.29559 516.20068 541.40796 567.4635 597.0033 607.00134 633.05695 657.62799"
           y="0"
           sodipodi:role="line"
           id="tspan234">PORTAIL D’INTERPRÉTATION GÉNOMIQUE</tspan></text></g></g></svg>
